<svg width="144" height="54" viewBox="0 0 144 54" fill="none" xmlns="http://www.w3.org/2000/svg">
    <g opacity="0.34">
    <g clip-path="url(#clip0)">
    <path d="M26.3424 40.5001C22.7259 40.4793 19.7343 33.0966 19.7343 29.3368C19.7343 23.1952 24.3416 21.8506 26.1172 21.8506C26.9174 21.8506 27.7718 22.1649 28.5254 22.4429C29.0524 22.6369 29.5975 22.8371 29.9006 22.8371C30.0821 22.8371 30.5096 22.6668 30.8871 22.5174C31.6922 22.1968 32.694 21.7985 33.8606 21.7985C33.8627 21.7985 33.8655 21.7985 33.8676 21.7985C34.7386 21.7985 37.3799 21.9897 38.9678 24.3743L39.3397 24.9333L38.8044 25.3372C38.0397 25.9142 36.6443 26.9668 36.6443 29.0518C36.6443 31.5213 38.2246 32.471 38.9837 32.9277C39.3189 33.1293 39.6658 33.3372 39.6658 33.7919C39.6658 34.0888 37.2964 40.4633 33.8557 40.4633C33.0138 40.4633 32.4187 40.2102 31.8938 39.9871C31.3627 39.7611 30.9045 39.5665 30.1474 39.5665C29.7636 39.5665 29.2783 39.7479 28.7646 39.9405C28.0625 40.2025 27.2678 40.5001 26.3661 40.5001H26.3424Z" fill="#002F14"/>
    <path d="M34.2251 16.2001C34.3147 19.431 32.0041 21.6725 29.6961 21.5319C29.3158 18.9535 32.0038 16.2001 34.2251 16.2001Z" fill="#002F14"/>
    </g>
    <path d="M55.0074 17.6485C54.7746 17.3979 54.5479 17.2308 54.3271 17.1472C54.1123 17.0637 53.8945 17.0219 53.6737 17.0219C53.3455 17.0219 53.0471 17.0816 52.7786 17.201C52.516 17.3143 52.2892 17.4755 52.0983 17.6843C51.9073 17.8872 51.7581 18.1259 51.6507 18.4004C51.5493 18.6749 51.4986 18.9703 51.4986 19.2866C51.4986 19.6267 51.5493 19.94 51.6507 20.2264C51.7581 20.5129 51.9073 20.7605 52.0983 20.9694C52.2892 21.1782 52.516 21.3423 52.7786 21.4617C53.0471 21.581 53.3455 21.6407 53.6737 21.6407C53.9303 21.6407 54.1779 21.581 54.4166 21.4617C54.6613 21.3364 54.888 21.1394 55.0969 20.8709L56.0278 21.5333C55.7414 21.9271 55.3923 22.2136 54.9805 22.3926C54.5688 22.5716 54.1302 22.6611 53.6647 22.6611C53.1754 22.6611 52.7248 22.5835 52.3131 22.4284C51.9073 22.2673 51.5552 22.0435 51.2569 21.7571C50.9645 21.4647 50.7347 21.1156 50.5676 20.7098C50.4006 20.304 50.317 19.8535 50.317 19.3582C50.317 18.8509 50.4006 18.3915 50.5676 17.9797C50.7347 17.562 50.9645 17.2069 51.2569 16.9145C51.5552 16.6221 51.9073 16.3983 52.3131 16.2432C52.7248 16.0821 53.1754 16.0015 53.6647 16.0015C54.0944 16.0015 54.4912 16.0791 54.8552 16.2342C55.2252 16.3834 55.5683 16.64 55.8846 17.004L55.0074 17.6485ZM56.5915 20.3517C56.5915 20.0116 56.6512 19.7043 56.7705 19.4298C56.8958 19.1493 57.0629 18.9106 57.2718 18.7137C57.4806 18.5168 57.7283 18.3646 58.0147 18.2572C58.3012 18.1498 58.6055 18.0961 58.9277 18.0961C59.25 18.0961 59.5543 18.1498 59.8408 18.2572C60.1272 18.3646 60.3748 18.5168 60.5837 18.7137C60.7926 18.9106 60.9567 19.1493 61.076 19.4298C61.2013 19.7043 61.264 20.0116 61.264 20.3517C61.264 20.6919 61.2013 21.0022 61.076 21.2827C60.9567 21.5572 60.7926 21.7929 60.5837 21.9898C60.3748 22.1867 60.1272 22.3389 59.8408 22.4463C59.5543 22.5537 59.25 22.6074 58.9277 22.6074C58.6055 22.6074 58.3012 22.5537 58.0147 22.4463C57.7283 22.3389 57.4806 22.1867 57.2718 21.9898C57.0629 21.7929 56.8958 21.5572 56.7705 21.2827C56.6512 21.0022 56.5915 20.6919 56.5915 20.3517ZM57.6656 20.3517C57.6656 20.5188 57.6925 20.6799 57.7462 20.8351C57.8059 20.9902 57.8894 21.1275 57.9968 21.2468C58.1102 21.3662 58.2445 21.4617 58.3996 21.5333C58.5548 21.6049 58.7308 21.6407 58.9277 21.6407C59.1247 21.6407 59.3007 21.6049 59.4559 21.5333C59.611 21.4617 59.7423 21.3662 59.8497 21.2468C59.9631 21.1275 60.0466 20.9902 60.1003 20.8351C60.16 20.6799 60.1898 20.5188 60.1898 20.3517C60.1898 20.1847 60.16 20.0235 60.1003 19.8684C60.0466 19.7132 59.9631 19.576 59.8497 19.4566C59.7423 19.3373 59.611 19.2418 59.4559 19.1702C59.3007 19.0986 59.1247 19.0628 58.9277 19.0628C58.7308 19.0628 58.5548 19.0986 58.3996 19.1702C58.2445 19.2418 58.1102 19.3373 57.9968 19.4566C57.8894 19.576 57.8059 19.7132 57.7462 19.8684C57.6925 20.0235 57.6656 20.1847 57.6656 20.3517ZM62.3449 18.2035H63.3653V18.8748H63.3832C63.4787 18.6719 63.6309 18.4929 63.8397 18.3377C64.0545 18.1766 64.341 18.0961 64.699 18.0961C65.3733 18.0961 65.8209 18.3616 66.0417 18.8927C66.1968 18.6182 66.3908 18.4183 66.6235 18.293C66.8562 18.1617 67.1337 18.0961 67.456 18.0961C67.7424 18.0961 67.9841 18.1438 68.181 18.2393C68.3779 18.3348 68.5361 18.466 68.6554 18.6331C68.7807 18.8002 68.8702 18.9971 68.9239 19.2239C68.9776 19.4447 69.0045 19.6834 69.0045 19.94V22.5H67.9304V20.0653C67.9304 19.934 67.9184 19.8087 67.8946 19.6894C67.8707 19.564 67.8289 19.4566 67.7692 19.3671C67.7096 19.2716 67.629 19.197 67.5276 19.1433C67.4261 19.0896 67.2948 19.0628 67.1337 19.0628C66.9666 19.0628 66.8234 19.0956 66.7041 19.1612C66.5907 19.2209 66.4952 19.3045 66.4176 19.4119C66.346 19.5133 66.2923 19.6327 66.2565 19.7699C66.2267 19.9012 66.2118 20.0355 66.2118 20.1727V22.5H65.1376V19.94C65.1376 19.6715 65.0809 19.4596 64.9676 19.3045C64.8542 19.1433 64.6662 19.0628 64.4036 19.0628C64.2246 19.0628 64.0724 19.0926 63.9471 19.1523C63.8278 19.212 63.7263 19.2925 63.6428 19.394C63.5652 19.4954 63.5085 19.6118 63.4727 19.7431C63.4369 19.8743 63.419 20.0116 63.419 20.1548V22.5H62.3449V18.2035ZM70.316 18.2035H71.3902V22.5H70.316V18.2035ZM70.1639 16.7445C70.1639 16.5714 70.2265 16.4222 70.3518 16.2969C70.4831 16.1656 70.6472 16.1 70.8442 16.1C71.0411 16.1 71.2052 16.1626 71.3365 16.2879C71.4737 16.4073 71.5423 16.5595 71.5423 16.7445C71.5423 16.9294 71.4737 17.0846 71.3365 17.2099C71.2052 17.3293 71.0411 17.3889 70.8442 17.3889C70.6472 17.3889 70.4831 17.3263 70.3518 17.201C70.2265 17.0697 70.1639 16.9175 70.1639 16.7445ZM72.7433 18.2035H73.7637V18.8927H73.7816C73.8831 18.6779 74.0382 18.4929 74.2471 18.3377C74.456 18.1766 74.7394 18.0961 75.0975 18.0961C75.3839 18.0961 75.6256 18.1438 75.8225 18.2393C76.0254 18.3348 76.1895 18.4601 76.3148 18.6152C76.4401 18.7704 76.5296 18.9494 76.5833 19.1523C76.637 19.3552 76.6639 19.567 76.6639 19.7878V22.5H75.5898V20.3249C75.5898 20.2055 75.5838 20.0743 75.5719 19.931C75.5599 19.7819 75.5271 19.6446 75.4734 19.5193C75.4257 19.388 75.3481 19.2806 75.2407 19.197C75.1333 19.1075 74.9871 19.0628 74.8021 19.0628C74.6231 19.0628 74.4709 19.0926 74.3456 19.1523C74.2262 19.212 74.1248 19.2925 74.0412 19.394C73.9637 19.4954 73.907 19.6118 73.8712 19.7431C73.8354 19.8743 73.8175 20.0116 73.8175 20.1548V22.5H72.7433V18.2035ZM82.425 18.2035V22.1151C82.425 22.503 82.3773 22.8521 82.2818 23.1624C82.1863 23.4787 82.0372 23.7442 81.8343 23.959C81.6373 24.1798 81.3867 24.3499 81.0824 24.4692C80.778 24.5886 80.417 24.6483 79.9993 24.6483C79.5995 24.6483 79.2206 24.5975 78.8625 24.4961C78.5045 24.3946 78.1733 24.2097 77.8689 23.9411L78.5134 23.0639C78.7282 23.2608 78.952 23.413 79.1847 23.5204C79.4175 23.6278 79.686 23.6815 79.9903 23.6815C80.2469 23.6815 80.4618 23.6457 80.6348 23.5741C80.8138 23.5025 80.9541 23.4041 81.0555 23.2787C81.1629 23.1534 81.2375 23.0013 81.2793 22.8222C81.327 22.6492 81.3509 22.4552 81.3509 22.2404V21.9271H81.333C81.1779 22.136 80.972 22.2941 80.7154 22.4015C80.4588 22.503 80.1962 22.5537 79.9277 22.5537C79.6054 22.5537 79.313 22.497 79.0505 22.3836C78.7879 22.2643 78.5612 22.1062 78.3702 21.9092C78.1852 21.7123 78.042 21.4796 77.9405 21.211C77.8391 20.9425 77.7884 20.6561 77.7884 20.3517C77.7884 20.0355 77.8361 19.7401 77.9316 19.4656C78.0271 19.1911 78.1673 18.9524 78.3523 18.7495C78.5373 18.5466 78.7581 18.3885 79.0147 18.2751C79.2772 18.1557 79.5756 18.0961 79.9098 18.0961C80.2141 18.0961 80.4976 18.1557 80.7601 18.2751C81.0227 18.3944 81.2316 18.5854 81.3867 18.848H81.4046V18.2035H82.425ZM80.1336 19.0628C79.9426 19.0628 79.7696 19.0956 79.6144 19.1612C79.4592 19.2209 79.325 19.3074 79.2116 19.4208C79.1042 19.5282 79.0177 19.6625 78.952 19.8236C78.8923 19.9788 78.8625 20.1518 78.8625 20.3428C78.8625 20.5158 78.8923 20.677 78.952 20.8261C79.0177 20.9753 79.1072 21.1066 79.2206 21.22C79.3339 21.3334 79.4682 21.4229 79.6234 21.4885C79.7785 21.5542 79.9456 21.587 80.1246 21.587C80.3215 21.587 80.4976 21.5542 80.6527 21.4885C80.8138 21.4229 80.9481 21.3364 81.0555 21.2289C81.1689 21.1156 81.2554 20.9813 81.3151 20.8261C81.3748 20.671 81.4046 20.5039 81.4046 20.3249C81.4046 19.9489 81.2912 19.6446 81.0645 19.4119C80.8377 19.1791 80.5274 19.0628 80.1336 19.0628ZM88.8214 19.394C88.6126 19.1016 88.3321 18.9554 87.98 18.9554C87.8368 18.9554 87.6966 18.9912 87.5593 19.0628C87.4221 19.1344 87.3535 19.2508 87.3535 19.4119C87.3535 19.5432 87.4101 19.6386 87.5235 19.6983C87.6369 19.758 87.7801 19.8087 87.9532 19.8505C88.1262 19.8922 88.3112 19.937 88.5081 19.9847C88.711 20.0265 88.899 20.0951 89.0721 20.1906C89.2451 20.2801 89.3883 20.4054 89.5017 20.5666C89.6151 20.7277 89.6718 20.9485 89.6718 21.2289C89.6718 21.4855 89.6151 21.7034 89.5017 21.8824C89.3943 22.0554 89.2511 22.1957 89.0721 22.3031C88.899 22.4105 88.7021 22.4881 88.4813 22.5358C88.2605 22.5835 88.0397 22.6074 87.8189 22.6074C87.4847 22.6074 87.1774 22.5597 86.8969 22.4642C86.6165 22.3687 86.3659 22.1957 86.1451 21.945L86.8611 21.2737C86.9984 21.4289 87.1446 21.5572 87.2997 21.6586C87.4609 21.7541 87.6548 21.8018 87.8816 21.8018C87.9591 21.8018 88.0397 21.7929 88.1232 21.775C88.2068 21.7571 88.2844 21.7272 88.356 21.6855C88.4276 21.6437 88.4843 21.593 88.526 21.5333C88.5738 21.4676 88.5977 21.393 88.5977 21.3095C88.5977 21.1603 88.541 21.0499 88.4276 20.9783C88.3142 20.9067 88.171 20.85 87.9979 20.8082C87.8249 20.7605 87.6369 20.7187 87.434 20.6829C87.2371 20.6412 87.0521 20.5785 86.879 20.495C86.706 20.4054 86.5628 20.2831 86.4494 20.128C86.336 19.9728 86.2793 19.758 86.2793 19.4835C86.2793 19.2448 86.3271 19.0389 86.4225 18.8659C86.524 18.6868 86.6553 18.5406 86.8164 18.4273C86.9775 18.3139 87.1625 18.2303 87.3714 18.1766C87.5802 18.1229 87.7921 18.0961 88.0069 18.0961C88.2933 18.0961 88.5768 18.1468 88.8572 18.2482C89.1377 18.3437 89.3645 18.5108 89.5375 18.7495L88.8214 19.394ZM90.4124 20.3517C90.4124 20.0116 90.4721 19.7043 90.5914 19.4298C90.7168 19.1493 90.8838 18.9106 91.0927 18.7137C91.3016 18.5168 91.5492 18.3646 91.8356 18.2572C92.1221 18.1498 92.4264 18.0961 92.7487 18.0961C93.0709 18.0961 93.3752 18.1498 93.6617 18.2572C93.9481 18.3646 94.1957 18.5168 94.4046 18.7137C94.6135 18.9106 94.7776 19.1493 94.8969 19.4298C95.0222 19.7043 95.0849 20.0116 95.0849 20.3517C95.0849 20.6919 95.0222 21.0022 94.8969 21.2827C94.7776 21.5572 94.6135 21.7929 94.4046 21.9898C94.1957 22.1867 93.9481 22.3389 93.6617 22.4463C93.3752 22.5537 93.0709 22.6074 92.7487 22.6074C92.4264 22.6074 92.1221 22.5537 91.8356 22.4463C91.5492 22.3389 91.3016 22.1867 91.0927 21.9898C90.8838 21.7929 90.7168 21.5572 90.5914 21.2827C90.4721 21.0022 90.4124 20.6919 90.4124 20.3517ZM91.4865 20.3517C91.4865 20.5188 91.5134 20.6799 91.5671 20.8351C91.6268 20.9902 91.7103 21.1275 91.8177 21.2468C91.9311 21.3662 92.0654 21.4617 92.2205 21.5333C92.3757 21.6049 92.5517 21.6407 92.7487 21.6407C92.9456 21.6407 93.1216 21.6049 93.2768 21.5333C93.4319 21.4617 93.5632 21.3662 93.6706 21.2468C93.784 21.1275 93.8675 20.9902 93.9212 20.8351C93.9809 20.6799 94.0108 20.5188 94.0108 20.3517C94.0108 20.1847 93.9809 20.0235 93.9212 19.8684C93.8675 19.7132 93.784 19.576 93.6706 19.4566C93.5632 19.3373 93.4319 19.2418 93.2768 19.1702C93.1216 19.0986 92.9456 19.0628 92.7487 19.0628C92.5517 19.0628 92.3757 19.0986 92.2205 19.1702C92.0654 19.2418 91.9311 19.3373 91.8177 19.4566C91.7103 19.576 91.6268 19.7132 91.5671 19.8684C91.5134 20.0235 91.4865 20.1847 91.4865 20.3517ZM95.9957 20.3517C95.9957 20.0116 96.0554 19.7043 96.1747 19.4298C96.3001 19.1493 96.4672 18.9106 96.676 18.7137C96.8849 18.5168 97.1325 18.3646 97.4189 18.2572C97.7054 18.1498 98.0097 18.0961 98.332 18.0961C98.6542 18.0961 98.9585 18.1498 99.245 18.2572C99.5314 18.3646 99.7791 18.5168 99.9879 18.7137C100.197 18.9106 100.361 19.1493 100.48 19.4298C100.606 19.7043 100.668 20.0116 100.668 20.3517C100.668 20.6919 100.606 21.0022 100.48 21.2827C100.361 21.5572 100.197 21.7929 99.9879 21.9898C99.7791 22.1867 99.5314 22.3389 99.245 22.4463C98.9585 22.5537 98.6542 22.6074 98.332 22.6074C98.0097 22.6074 97.7054 22.5537 97.4189 22.4463C97.1325 22.3389 96.8849 22.1867 96.676 21.9898C96.4672 21.7929 96.3001 21.5572 96.1747 21.2827C96.0554 21.0022 95.9957 20.6919 95.9957 20.3517ZM97.0699 20.3517C97.0699 20.5188 97.0967 20.6799 97.1504 20.8351C97.2101 20.9902 97.2936 21.1275 97.401 21.2468C97.5144 21.3662 97.6487 21.4617 97.8038 21.5333C97.959 21.6049 98.135 21.6407 98.332 21.6407C98.5289 21.6407 98.7049 21.6049 98.8601 21.5333C99.0152 21.4617 99.1465 21.3662 99.2539 21.2468C99.3673 21.1275 99.4508 20.9902 99.5046 20.8351C99.5642 20.6799 99.5941 20.5188 99.5941 20.3517C99.5941 20.1847 99.5642 20.0235 99.5046 19.8684C99.4508 19.7132 99.3673 19.576 99.2539 19.4566C99.1465 19.3373 99.0152 19.2418 98.8601 19.1702C98.7049 19.0986 98.5289 19.0628 98.332 19.0628C98.135 19.0628 97.959 19.0986 97.8038 19.1702C97.6487 19.2418 97.5144 19.3373 97.401 19.4566C97.2936 19.576 97.2101 19.7132 97.1504 19.8684C97.0967 20.0235 97.0699 20.1847 97.0699 20.3517ZM101.794 18.2035H102.814V18.8927H102.832C102.934 18.6779 103.089 18.4929 103.298 18.3377C103.507 18.1766 103.79 18.0961 104.148 18.0961C104.434 18.0961 104.676 18.1438 104.873 18.2393C105.076 18.3348 105.24 18.4601 105.365 18.6152C105.491 18.7704 105.58 18.9494 105.634 19.1523C105.688 19.3552 105.714 19.567 105.714 19.7878V22.5H104.64V20.3249C104.64 20.2055 104.634 20.0743 104.622 19.931C104.61 19.7819 104.578 19.6446 104.524 19.5193C104.476 19.388 104.399 19.2806 104.291 19.197C104.184 19.1075 104.038 19.0628 103.853 19.0628C103.674 19.0628 103.521 19.0926 103.396 19.1523C103.277 19.212 103.175 19.2925 103.092 19.394C103.014 19.4954 102.958 19.6118 102.922 19.7431C102.886 19.8743 102.868 20.0116 102.868 20.1548V22.5H101.794V18.2035ZM109.608 20.3517C109.608 20.0116 109.667 19.7043 109.787 19.4298C109.912 19.1493 110.079 18.9106 110.288 18.7137C110.497 18.5168 110.744 18.3646 111.031 18.2572C111.317 18.1498 111.622 18.0961 111.944 18.0961C112.266 18.0961 112.57 18.1498 112.857 18.2572C113.143 18.3646 113.391 18.5168 113.6 18.7137C113.809 18.9106 113.973 19.1493 114.092 19.4298C114.217 19.7043 114.28 20.0116 114.28 20.3517C114.28 20.6919 114.217 21.0022 114.092 21.2827C113.973 21.5572 113.809 21.7929 113.6 21.9898C113.391 22.1867 113.143 22.3389 112.857 22.4463C112.57 22.5537 112.266 22.6074 111.944 22.6074C111.622 22.6074 111.317 22.5537 111.031 22.4463C110.744 22.3389 110.497 22.1867 110.288 21.9898C110.079 21.7929 109.912 21.5572 109.787 21.2827C109.667 21.0022 109.608 20.6919 109.608 20.3517ZM110.682 20.3517C110.682 20.5188 110.709 20.6799 110.762 20.8351C110.822 20.9902 110.905 21.1275 111.013 21.2468C111.126 21.3662 111.26 21.4617 111.416 21.5333C111.571 21.6049 111.747 21.6407 111.944 21.6407C112.141 21.6407 112.317 21.6049 112.472 21.5333C112.627 21.4617 112.758 21.3662 112.866 21.2468C112.979 21.1275 113.063 20.9902 113.116 20.8351C113.176 20.6799 113.206 20.5188 113.206 20.3517C113.206 20.1847 113.176 20.0235 113.116 19.8684C113.063 19.7132 112.979 19.576 112.866 19.4566C112.758 19.3373 112.627 19.2418 112.472 19.1702C112.317 19.0986 112.141 19.0628 111.944 19.0628C111.747 19.0628 111.571 19.0986 111.416 19.1702C111.26 19.2418 111.126 19.3373 111.013 19.4566C110.905 19.576 110.822 19.7132 110.762 19.8684C110.709 20.0235 110.682 20.1847 110.682 20.3517ZM115.406 18.2035H116.426V18.8927H116.444C116.545 18.6779 116.701 18.4929 116.909 18.3377C117.118 18.1766 117.402 18.0961 117.76 18.0961C118.046 18.0961 118.288 18.1438 118.485 18.2393C118.688 18.3348 118.852 18.4601 118.977 18.6152C119.102 18.7704 119.192 18.9494 119.246 19.1523C119.299 19.3552 119.326 19.567 119.326 19.7878V22.5H118.252V20.3249C118.252 20.2055 118.246 20.0743 118.234 19.931C118.222 19.7819 118.189 19.6446 118.136 19.5193C118.088 19.388 118.01 19.2806 117.903 19.197C117.796 19.1075 117.649 19.0628 117.464 19.0628C117.285 19.0628 117.133 19.0926 117.008 19.1523C116.889 19.212 116.787 19.2925 116.704 19.394C116.626 19.4954 116.569 19.6118 116.534 19.7431C116.498 19.8743 116.48 20.0116 116.48 20.1548V22.5H115.406V18.2035Z" fill="#033402"/>
    <path d="M54.3252 29.8439H56.1757L60.5939 40H58.0692L57.1941 37.8483H53.2493L52.403 40H49.9357L54.3252 29.8439ZM55.1859 32.7989L53.9522 35.9548H56.4339L55.1859 32.7989ZM61.7529 33.0284H63.7325V33.9465H63.7612C63.8473 33.8222 63.9573 33.6978 64.0911 33.5735C64.2346 33.4396 64.3972 33.3201 64.5789 33.2149C64.7701 33.1097 64.9757 33.0236 65.1957 32.9567C65.4157 32.8898 65.65 32.8563 65.8986 32.8563C66.415 32.8563 66.8836 32.9471 67.3044 33.1288C67.7252 33.301 68.0838 33.5496 68.3803 33.8748C68.6863 34.1903 68.9206 34.5681 69.0831 35.008C69.2457 35.4479 69.327 35.9309 69.327 36.4568C69.327 36.9446 69.2505 37.4132 69.0975 37.8626C68.954 38.3025 68.7437 38.6946 68.4663 39.0389C68.1985 39.3832 67.8686 39.6605 67.4765 39.8709C67.0844 40.0717 66.6397 40.1721 66.1425 40.1721C65.693 40.1721 65.2722 40.1052 64.8801 39.9713C64.4976 39.8279 64.182 39.5888 63.9334 39.2541H63.9047V43.2706H61.7529V33.0284ZM63.7325 36.5142C63.7325 37.0402 63.8808 37.4657 64.1772 37.7909C64.4832 38.116 64.9088 38.2786 65.4539 38.2786C65.999 38.2786 66.4198 38.116 66.7163 37.7909C67.0223 37.4657 67.1753 37.0402 67.1753 36.5142C67.1753 35.9882 67.0223 35.5627 66.7163 35.2375C66.4198 34.9124 65.999 34.7498 65.4539 34.7498C64.9088 34.7498 64.4832 34.9124 64.1772 35.2375C63.8808 35.5627 63.7325 35.9882 63.7325 36.5142ZM70.9978 33.0284H72.9774V33.9465H73.0061C73.0921 33.8222 73.2021 33.6978 73.336 33.5735C73.4794 33.4396 73.642 33.3201 73.8237 33.2149C74.015 33.1097 74.2206 33.0236 74.4405 32.9567C74.6605 32.8898 74.8948 32.8563 75.1434 32.8563C75.6599 32.8563 76.1285 32.9471 76.5492 33.1288C76.97 33.301 77.3286 33.5496 77.6251 33.8748C77.9311 34.1903 78.1654 34.5681 78.328 35.008C78.4906 35.4479 78.5719 35.9309 78.5719 36.4568C78.5719 36.9446 78.4953 37.4132 78.3423 37.8626C78.1989 38.3025 77.9885 38.6946 77.7112 39.0389C77.4434 39.3832 77.1135 39.6605 76.7214 39.8709C76.3293 40.0717 75.8846 40.1721 75.3873 40.1721C74.9378 40.1721 74.5171 40.1052 74.125 39.9713C73.7424 39.8279 73.4268 39.5888 73.1782 39.2541H73.1495V43.2706H70.9978V33.0284ZM72.9774 36.5142C72.9774 37.0402 73.1256 37.4657 73.4221 37.7909C73.7281 38.116 74.1537 38.2786 74.6988 38.2786C75.2439 38.2786 75.6646 38.116 75.9611 37.7909C76.2671 37.4657 76.4201 37.0402 76.4201 36.5142C76.4201 35.9882 76.2671 35.5627 75.9611 35.2375C75.6646 34.9124 75.2439 34.7498 74.6988 34.7498C74.1537 34.7498 73.7281 34.9124 73.4221 35.2375C73.1256 35.5627 72.9774 35.9882 72.9774 36.5142ZM89.789 32.3255C89.6073 32.096 89.3586 31.9286 89.043 31.8235C88.737 31.7087 88.4453 31.6513 88.168 31.6513C88.0054 31.6513 87.8381 31.6704 87.6659 31.7087C87.4938 31.7469 87.3312 31.8091 87.1782 31.8952C87.0252 31.9717 86.9009 32.0769 86.8052 32.2108C86.7096 32.3446 86.6618 32.5072 86.6618 32.6985C86.6618 33.0045 86.7765 33.2388 87.0061 33.4014C87.2356 33.564 87.5225 33.7026 87.8667 33.8174C88.2206 33.9321 88.5983 34.0469 89 34.1617C89.4016 34.2764 89.7746 34.439 90.1189 34.6494C90.4727 34.8598 90.7644 35.1419 90.9939 35.4957C91.2234 35.8496 91.3382 36.3229 91.3382 36.9159C91.3382 37.4801 91.233 37.9726 91.0226 38.3934C90.8122 38.8142 90.5253 39.1632 90.1619 39.4406C89.8081 39.7179 89.3921 39.9235 88.9139 40.0574C88.4453 40.1913 87.948 40.2582 87.4221 40.2582C86.7622 40.2582 86.1502 40.1578 85.5859 39.957C85.0217 39.7561 84.4957 39.431 84.008 38.9815L85.6003 37.2315C85.8298 37.5375 86.1167 37.7766 86.461 37.9487C86.8148 38.1113 87.1782 38.1926 87.5512 38.1926C87.7329 38.1926 87.9146 38.1734 88.0963 38.1352C88.2875 38.0874 88.4549 38.0204 88.5983 37.9343C88.7513 37.8483 88.8709 37.7383 88.957 37.6044C89.0526 37.4705 89.1004 37.3127 89.1004 37.131C89.1004 36.825 88.9809 36.5859 88.7418 36.4138C88.5123 36.2321 88.2206 36.0791 87.8667 35.9548C87.5129 35.8304 87.1304 35.7061 86.7192 35.5818C86.3079 35.4575 85.9254 35.2901 85.5716 35.0797C85.2177 34.8693 84.9213 34.592 84.6822 34.2477C84.4527 33.9035 84.3379 33.4492 84.3379 32.885C84.3379 32.3399 84.4431 31.8617 84.6535 31.4505C84.8735 31.0393 85.1604 30.695 85.5142 30.4177C85.8776 30.1403 86.2936 29.9347 86.7622 29.8008C87.2308 29.6574 87.7137 29.5857 88.211 29.5857C88.7848 29.5857 89.3395 29.6669 89.875 29.8295C90.4106 29.9921 90.8935 30.2646 91.3238 30.6472L89.789 32.3255ZM97.6902 34.7498H95.7967V37.0737C95.7967 37.2649 95.8063 37.4418 95.8254 37.6044C95.8445 37.7574 95.8875 37.8913 95.9545 38.0061C96.0214 38.1208 96.1218 38.2117 96.2557 38.2786C96.3992 38.336 96.5857 38.3647 96.8152 38.3647C96.9299 38.3647 97.0782 38.3551 97.2599 38.336C97.4511 38.3073 97.5946 38.2499 97.6902 38.1639V39.957C97.4511 40.043 97.2025 40.1004 96.9443 40.1291C96.6861 40.1578 96.4326 40.1721 96.184 40.1721C95.8206 40.1721 95.4859 40.1339 95.1799 40.0574C94.8738 39.9809 94.6061 39.8613 94.3766 39.6988C94.147 39.5266 93.9653 39.3067 93.8314 39.0389C93.7071 38.7711 93.645 38.446 93.645 38.0634V34.7498H92.2679V33.0284H93.645V30.9628H95.7967V33.0284H97.6902V34.7498ZM98.7347 36.5142C98.7347 35.9595 98.8352 35.4575 99.036 35.008C99.2368 34.5585 99.5094 34.176 99.8536 33.8604C100.207 33.5353 100.619 33.2866 101.087 33.1145C101.565 32.9423 102.072 32.8563 102.608 32.8563C103.143 32.8563 103.645 32.9423 104.114 33.1145C104.592 33.2866 105.003 33.5353 105.348 33.8604C105.702 34.176 105.979 34.5585 106.18 35.008C106.381 35.4575 106.481 35.9595 106.481 36.5142C106.481 37.0689 106.381 37.5709 106.18 38.0204C105.979 38.4699 105.702 38.8572 105.348 39.1823C105.003 39.4979 104.592 39.7418 104.114 39.9139C103.645 40.0861 103.143 40.1721 102.608 40.1721C102.072 40.1721 101.565 40.0861 101.087 39.9139C100.619 39.7418 100.207 39.4979 99.8536 39.1823C99.5094 38.8572 99.2368 38.4699 99.036 38.0204C98.8352 37.5709 98.7347 37.0689 98.7347 36.5142ZM100.886 36.5142C100.886 37.0402 101.035 37.4657 101.331 37.7909C101.637 38.116 102.063 38.2786 102.608 38.2786C103.153 38.2786 103.574 38.116 103.87 37.7909C104.176 37.4657 104.329 37.0402 104.329 36.5142C104.329 35.9882 104.176 35.5627 103.87 35.2375C103.574 34.9124 103.153 34.7498 102.608 34.7498C102.063 34.7498 101.637 34.9124 101.331 35.2375C101.035 35.5627 100.886 35.9882 100.886 36.5142ZM107.958 33.0284H110.109V34.1473H110.138C110.368 33.717 110.64 33.3966 110.956 33.1862C111.271 32.9663 111.668 32.8563 112.146 32.8563C112.271 32.8563 112.395 32.8611 112.519 32.8706C112.644 32.8802 112.758 32.8993 112.864 32.928V34.8932C112.711 34.8454 112.558 34.812 112.405 34.7928C112.261 34.7641 112.108 34.7498 111.945 34.7498C111.534 34.7498 111.209 34.8072 110.97 34.9219C110.731 35.0367 110.544 35.1993 110.411 35.4097C110.286 35.6105 110.205 35.8543 110.167 36.1412C110.128 36.4281 110.109 36.7437 110.109 37.088V40H107.958V33.0284ZM120.355 38.795C120.011 39.2349 119.576 39.5744 119.05 39.8135C118.524 40.0526 117.979 40.1721 117.414 40.1721C116.879 40.1721 116.372 40.0861 115.894 39.9139C115.425 39.7418 115.014 39.4979 114.66 39.1823C114.316 38.8572 114.043 38.4699 113.842 38.0204C113.642 37.5709 113.541 37.0689 113.541 36.5142C113.541 35.9595 113.642 35.4575 113.842 35.008C114.043 34.5585 114.316 34.176 114.66 33.8604C115.014 33.5353 115.425 33.2866 115.894 33.1145C116.372 32.9423 116.879 32.8563 117.414 32.8563C117.912 32.8563 118.361 32.9423 118.763 33.1145C119.174 33.2866 119.518 33.5353 119.796 33.8604C120.082 34.176 120.302 34.5585 120.455 35.008C120.608 35.4575 120.685 35.9595 120.685 36.5142V37.1884H115.693C115.779 37.5996 115.965 37.9296 116.252 38.1782C116.539 38.4173 116.893 38.5368 117.314 38.5368C117.668 38.5368 117.964 38.4603 118.203 38.3073C118.452 38.1447 118.667 37.9391 118.849 37.6905L120.355 38.795ZM118.533 35.7252C118.543 35.3618 118.423 35.051 118.175 34.7928C117.926 34.5346 117.606 34.4055 117.213 34.4055C116.974 34.4055 116.764 34.4438 116.582 34.5203C116.401 34.5968 116.243 34.6972 116.109 34.8215C115.985 34.9363 115.884 35.0749 115.808 35.2375C115.741 35.3905 115.702 35.5531 115.693 35.7252H118.533Z" fill="#033402"/>
    </g>
    <defs>
    <clipPath id="clip0">
    <rect width="24.3" height="24.3" fill="white" transform="translate(17.55 16.2)"/>
    </clipPath>
    </defs>
</svg>
