<svg width="169" height="24" viewBox="0 0 169 24" fill="none" xmlns="http://www.w3.org/2000/svg">
    <path d="M0.962067 2.10498H8.73127C12.36 2.10498 16.3609 2.83989 16.3609 7.3412C16.3609 9.63779 14.9187 11.1995 12.7787 11.8884V11.9344C15.5235 12.3018 17.3379 14.2769 17.3379 16.9409C17.3379 21.2585 13.1974 22.6824 9.52214 22.6824H0.962067V2.10498ZM5.52124 10.3268H8.87083C10.2665 10.3268 11.7552 9.72965 11.7552 8.07611C11.7552 6.37663 10.1269 5.91732 8.68474 5.91732H5.56776V10.3268H5.52124ZM5.52124 18.8701H9.66171C11.1039 18.8701 12.7322 18.273 12.7322 16.4357C12.7322 14.5066 10.5456 14.185 9.0104 14.185H5.52124V18.8701Z" fill="#141C4A"/>
    <path d="M21.7109 1.59985C23.1066 1.59985 24.2697 2.74815 24.2697 4.1261C24.2697 5.50405 23.1066 6.65235 21.7109 6.65235C20.3153 6.65235 19.1522 5.50405 19.1522 4.1261C19.1522 2.74815 20.3153 1.59985 21.7109 1.59985ZM19.5244 8.58148H23.944V22.7285H19.5244V8.58148Z" fill="#141C4A"/>
    <path d="M36.8306 12.0722H32.9228V16.8032C32.9228 18.3189 33.1089 19.4213 35.0163 19.4213C35.4815 19.4213 36.4119 19.3754 36.8306 19.0079V22.6365C35.8537 23.004 34.7837 23.0499 33.7602 23.0499C30.8293 23.0499 28.5497 21.8557 28.5497 18.7783V12.0722H25.7119V8.5814H28.5497V4.40161H32.9693V8.5814H36.8772V12.0722H36.8306Z" fill="#141C4A"/>
    <path d="M48.7868 13.1286C48.3681 12.5315 47.5307 12.0722 46.6003 12.0722C44.4137 12.0722 43.0646 13.542 43.0646 15.6549C43.0646 17.7677 44.3672 19.2375 46.6003 19.2375C47.5772 19.2375 48.2751 18.7323 48.7868 18.1811L51.7177 21.2126C50.322 22.5906 48.3216 23.0958 46.6468 23.0958C42.2272 23.0958 38.6915 20.2021 38.6915 15.7008C38.6915 11.1995 42.2272 8.30579 46.6468 8.30579C48.3216 8.30579 50.3686 8.81103 51.7177 10.189L48.7868 13.1286Z" fill="#141C4A"/>
    <path d="M60.6965 8.21387C65.1161 8.21387 68.6518 11.1076 68.6518 15.6089C68.6518 20.1102 65.1161 23.0039 60.6965 23.0039C56.2769 23.0039 52.7412 20.1102 52.7412 15.6089C52.7412 11.1076 56.2769 8.21387 60.6965 8.21387ZM60.6965 19.1916C62.883 19.1916 64.2322 17.7217 64.2322 15.6089C64.2322 13.496 62.9296 12.0262 60.6965 12.0262C58.5099 12.0262 57.1608 13.496 57.1608 15.6089C57.1608 17.7217 58.5099 19.1916 60.6965 19.1916Z" fill="#141C4A"/>
    <path d="M73.4901 1.59985C74.8857 1.59985 76.0488 2.74815 76.0488 4.1261C76.0488 5.50405 74.8857 6.65235 73.4901 6.65235C72.0944 6.65235 70.9313 5.50405 70.9313 4.1261C70.9313 2.74815 72.0944 1.59985 73.4901 1.59985ZM71.3035 8.58148H75.7231V22.7285H71.3035V8.58148Z" fill="#141C4A"/>
    <path d="M78.8867 8.58141H83.1202V10.5105H83.1667C83.7715 9.40818 85.2137 8.25989 87.3537 8.25989C91.8198 8.25989 92.6572 11.1536 92.6572 14.9659V22.7743H88.2376V15.7927C88.2376 14.1851 88.1911 12.0722 85.958 12.0722C83.6784 12.0722 83.3063 13.8636 83.3063 15.6549V22.6825H78.8867V8.58141Z" fill="#141C4A"/>
    <path d="M96.7046 22.6824H94.239L103.311 2.10498H105.358L114.43 22.6824H111.964L109.684 17.2625H99.0307L96.7046 22.6824ZM99.7751 15.3793H108.8L104.288 4.5853L99.7751 15.3793Z" fill="#3E57E5"/>
    <path d="M116.523 0.727051H118.477V11.3832H118.524C119.78 9.54595 122.059 8.76511 123.874 8.76511C128.154 8.76511 131.224 11.7966 131.224 15.9305C131.224 20.0643 128.2 23.0958 123.874 23.0958C122.059 23.0958 119.78 22.315 118.524 20.4777H118.477V22.7284H116.523V0.727051ZM123.874 10.5105C120.71 10.5105 118.384 12.853 118.384 15.8845C118.384 18.916 120.71 21.3045 123.874 21.3045C127.084 21.3045 129.084 18.962 129.084 15.8845C129.084 12.8071 127.084 10.5105 123.874 10.5105Z" fill="#3E57E5"/>
    <path d="M141.133 23.0499C136.853 23.0499 133.829 20.0185 133.829 15.8846C133.829 11.7507 136.853 8.71924 141.133 8.71924C145.413 8.71924 148.484 11.7507 148.484 15.8846C148.484 20.0185 145.413 23.0499 141.133 23.0499ZM141.133 10.5106C137.97 10.5106 135.969 12.8531 135.969 15.9305C135.969 19.008 137.97 21.3505 141.133 21.3505C144.343 21.3505 146.344 19.008 146.344 15.9305C146.344 12.8531 144.343 10.5106 141.133 10.5106Z" fill="#3E57E5"/>
    <path d="M153.927 15.2415L160.44 9.08663H163.371L156.532 15.2874L164.115 22.6824H161.091L153.927 15.5171V22.6824H151.973V0.727051H153.927V15.2415Z" fill="#3E57E5"/>
    <path d="M167.558 5.27434C166.86 5.27434 166.162 4.67723 166.162 3.89639C166.162 3.06961 166.86 2.51843 167.558 2.51843C168.256 2.51843 168.953 3.11555 168.953 3.89639C169 4.67723 168.302 5.27434 167.558 5.27434ZM168.535 22.6825H166.581V9.08668H168.535V22.6825Z" fill="#3E57E5"/>
</svg>    