<svg width="13" height="21" viewBox="0 0 13 21" fill="none" xmlns="http://www.w3.org/2000/svg">
    <path d="M1 10.8173L10.3575 1L6.8347 9.00714L11.7667 9.82143L2.95958 20L5.77785 12.2547L1 10.8173Z" fill="white"/>
    <path d="M10.3575 1L10.8229 1.20476C10.9224 0.978717 10.845 0.713901 10.6395 0.576929C10.4341 0.439956 10.1599 0.470436 9.98949 0.649193L10.3575 1ZM1 10.8173L0.631956 10.4665C0.510028 10.5944 0.463265 10.7765 0.508452 10.9473C0.553638 11.1182 0.684291 11.2533 0.853517 11.3042L1 10.8173ZM5.77785 12.2547L6.25565 12.4286C6.30347 12.2972 6.29505 12.1518 6.23236 12.0268C6.16967 11.9018 6.05825 11.8081 5.92433 11.7678L5.77785 12.2547ZM2.95958 20L2.48177 19.8261C2.3979 20.0566 2.49055 20.3142 2.70204 20.4384C2.91354 20.5626 3.18358 20.5182 3.34408 20.3327L2.95958 20ZM11.7667 9.82143L12.1512 10.1541C12.2716 10.015 12.3074 9.8216 12.2448 9.64854C12.1823 9.47549 12.0311 9.34975 11.8495 9.31977L11.7667 9.82143ZM6.8347 9.00714L6.3693 8.80239C6.30603 8.94618 6.31279 9.11114 6.3876 9.24928C6.46241 9.38741 6.59688 9.48321 6.75187 9.5088L6.8347 9.00714ZM9.98949 0.649193L0.631956 10.4665L1.36804 11.1681L10.7256 1.35081L9.98949 0.649193ZM0.853517 11.3042L5.63136 12.7416L5.92433 11.7678L1.14648 10.3304L0.853517 11.3042ZM5.30004 12.0809L2.48177 19.8261L3.43738 20.1739L6.25565 12.4286L5.30004 12.0809ZM3.34408 20.3327L12.1512 10.1541L11.3822 9.48874L2.57508 19.6673L3.34408 20.3327ZM11.8495 9.31977L6.91752 8.50548L6.75187 9.5088L11.6838 10.3231L11.8495 9.31977ZM7.3001 9.2119L10.8229 1.20476L9.89213 0.795242L6.3693 8.80239L7.3001 9.2119Z" fill="white"/>
</svg>
