<svg width="24" height="35" viewBox="0 0 24 35" fill="none" xmlns="http://www.w3.org/2000/svg">
    <path d="M24 34.4458H12.048C11.5583 34.4467 11.0692 34.4165 10.5834 34.3554C8.45886 34.0766 6.44908 33.2293 4.76626 31.9029C3.08343 30.5766 1.79002 28.8204 1.02263 26.8198C0.730455 26.0635 0.518343 25.2787 0.38977 24.4782C0.313311 24.0736 0.263479 23.6643 0.240596 23.2532C0.240596 22.8463 0.208953 22.4395 0.240596 22.0326C0.353448 19.4564 1.30598 16.9877 2.95286 15.0034C4.0823 13.6295 5.50688 12.5278 7.1207 11.7803C8.03682 11.3542 9.00494 11.0502 10.0002 10.8762C10.3619 10.8129 10.728 10.7768 11.0896 10.7361C11.6033 10.6839 12.1201 10.6718 12.6356 10.6999C13.6105 10.7392 14.5766 10.9017 15.5106 11.1836C17.5153 11.7847 19.3263 12.9035 20.7611 14.4272C22.1959 15.9508 23.2039 17.8257 23.6836 19.8628C23.7875 20.3099 23.8645 20.7627 23.9141 21.219C23.9709 21.7399 23.998 22.2636 23.9955 22.7876C23.9955 26.6269 23.9955 30.4648 23.9955 34.3011L24 34.4458ZM16.2565 31.1368H20.4786C20.7001 31.1368 20.682 31.1368 20.682 30.9289C20.682 28.2769 20.682 25.6249 20.682 22.9729C20.682 22.7514 20.682 22.5209 20.682 22.3084C20.6771 21.9267 20.6438 21.546 20.5826 21.1692C20.3144 19.5249 19.5694 17.9956 18.4399 16.7709C16.9101 15.1074 14.7847 14.1162 12.5271 14.0134C11.0074 13.9394 9.49545 14.2718 8.14684 14.9762C6.82353 15.6694 5.70389 16.6956 4.89845 17.9537C4.09301 19.2118 3.62963 20.6583 3.55408 22.1502C3.47205 23.8418 3.89197 25.5199 4.76103 26.9735C5.36553 27.9787 6.16953 28.8495 7.12347 29.5321C8.07741 30.2147 9.16106 30.6947 10.3076 30.9424C10.9588 31.0776 11.6225 31.1428 12.2876 31.1368H16.2565Z" fill="#3E57E5"/>
    <path d="M0.240568 0H12.1881C12.6794 0.00191593 13.1701 0.0351331 13.6572 0.0994496C15.7807 0.377403 17.7898 1.22336 19.4725 2.54806C21.1553 3.87276 22.4492 5.6271 23.2179 7.62598C23.5101 8.38225 23.7222 9.16707 23.8508 9.96756C23.9212 10.3726 23.965 10.7818 23.9819 11.1926C23.9819 11.5994 24.0135 12.0063 23.9819 12.4131C23.869 14.9894 22.9165 17.458 21.2696 19.4424C20.1402 20.8163 18.7156 21.9179 17.1018 22.6655C16.1857 23.0916 15.2176 23.3955 14.2223 23.5696C13.8606 23.6328 13.4945 23.669 13.1329 23.7097C12.6192 23.7619 12.1023 23.7739 11.5869 23.7459C10.612 23.7066 9.64594 23.5441 8.71187 23.2622C6.71023 22.6594 4.90247 21.5404 3.47023 20.0177C2.03799 18.495 1.03171 16.6222 0.552478 14.5874C0.448576 14.1404 0.37159 13.6876 0.321936 13.2313C0.265872 12.7164 0.238707 12.1988 0.240568 11.6808C0.240568 7.84145 0.240568 4.0036 0.240568 0.167256V0ZM7.97955 3.31348H3.75747C3.53597 3.31348 3.55405 3.31348 3.55405 3.52142C3.55405 6.17341 3.55405 8.8254 3.55405 11.4774C3.55405 11.6989 3.55405 11.9294 3.55405 12.1419C3.56198 12.5238 3.59825 12.9045 3.66254 13.281C3.93069 14.9253 4.67573 16.4547 5.80522 17.6794C7.33015 19.343 9.45024 20.3373 11.7044 20.4459C13.2241 20.5199 14.7361 20.1875 16.0847 19.4831C17.4133 18.7879 18.5368 17.7569 19.3433 16.4928C20.1499 15.2286 20.6114 13.7754 20.682 12.2775C20.759 10.5915 20.3377 8.9202 19.4705 7.47228C18.866 6.46703 18.062 5.59625 17.1081 4.91365C16.1541 4.23104 15.0705 3.75107 13.9239 3.50334C13.2728 3.36817 12.609 3.303 11.944 3.30896L7.97955 3.31348Z" fill="#00C9DD"/>
</svg>    