<svg width="25" height="35" viewBox="0 0 25 35" fill="none" xmlns="http://www.w3.org/2000/svg">
    <path d="M24.3776 21.542C24.3311 21.0827 24.238 20.6234 24.145 20.164C23.9124 19.1995 23.5867 18.3268 23.168 17.5C23.4472 16.9029 23.7263 16.3058 23.9124 15.6627C24.238 14.6522 24.4241 13.6417 24.4706 12.5853C24.4706 12.1719 24.4706 11.7585 24.4706 11.3451C24.4706 10.9318 24.4241 10.5184 24.3311 10.105C24.1915 9.27822 23.9589 8.49738 23.6798 7.71654C23.1215 6.33858 22.3771 5.09843 21.4002 3.99606C20.1906 2.66404 18.7019 1.60761 17.0271 0.918635C16.0036 0.505249 14.9336 0.229659 13.8636 0.0918635C13.3053 0.0459318 12.7936 0 12.2818 0C8.23442 0 4.18699 0 0.139566 0C0.0930443 0 0.0465221 0 0 0C0 0.0459318 0 0.137795 0 0.183727C0 4.08793 0 7.99213 0 11.8963C0 12.4475 0.0465221 12.9528 0.0930443 13.5039C0.139566 13.9633 0.232611 14.4226 0.325655 14.8819C0.558266 15.8465 0.883921 16.7192 1.30262 17.5459C1.02349 18.143 0.744354 18.7402 0.558266 19.3832C0.232611 20.3937 0.0465221 21.4042 0 22.4606C0 22.874 0 23.2874 0 23.7008C0 24.1142 0.0465221 24.5276 0.139566 24.9409C0.279133 25.7677 0.511743 26.5486 0.790876 27.3294C1.34914 28.7073 2.0935 29.9475 3.07046 31.0499C4.28004 32.3819 5.76874 33.4383 7.44354 34.1273C8.46703 34.5407 9.53704 34.8163 10.607 34.9541C11.1188 35 11.6305 35.0459 12.0958 35.0459C16.1432 35.0459 20.1906 35.0459 24.238 35.0459C24.2846 35.0459 24.3311 35.0459 24.3776 35.0459C24.3776 35 24.3776 34.9081 24.3776 34.8622C24.3776 30.958 24.3776 27.0538 24.3776 23.1496C24.4706 22.5984 24.4241 22.0932 24.3776 21.542ZM3.62873 3.35302C5.07091 3.35302 6.5131 3.35302 7.95529 3.35302C9.30443 3.35302 10.6536 3.35302 12.0492 3.35302C12.7471 3.35302 13.3984 3.39895 14.0962 3.53675C14.7475 3.67454 15.3523 3.85827 15.9571 4.13386C16.748 4.50131 17.4458 4.96063 18.0971 5.51181C18.7484 6.10892 19.3067 6.75197 19.7719 7.53281C20.3302 8.45144 20.7024 9.41601 20.8884 10.4724C21.028 11.1155 21.0745 11.7585 21.028 12.4475C20.9815 13.0906 20.8884 13.6877 20.7489 14.2848C19.3532 12.9068 17.6319 11.9423 15.7245 11.3451C14.7475 11.0696 13.7706 10.8858 12.7471 10.8399C12.2353 10.8399 11.6771 10.8399 11.1653 10.8858C10.7931 10.9318 10.421 10.9777 10.0488 11.0236C9.02529 11.2073 8.04833 11.5289 7.07136 11.9423C5.81527 12.5394 4.65221 13.2743 3.67525 14.2388C3.62873 13.9633 3.53568 13.7336 3.48916 13.458C3.44264 13.0906 3.39612 12.6772 3.39612 12.3097C3.39612 12.0801 3.39612 11.8504 3.39612 11.6207C3.39612 8.91076 3.39612 6.24672 3.39612 3.53675C3.39612 3.35302 3.39612 3.35302 3.62873 3.35302ZM19.1206 17.5C18.981 17.6378 18.888 17.7756 18.7484 17.9593C18.0506 18.7402 17.2132 19.3373 16.3293 19.7966C15.5384 20.21 14.701 20.4856 13.8171 20.6693C13.1658 20.8071 12.4679 20.853 11.8166 20.8071C10.6536 20.7612 9.49052 20.4856 8.42051 19.9803C7.39702 19.4751 6.5131 18.832 5.72222 18.0053C5.58266 17.8675 5.44309 17.6837 5.30352 17.5459C5.44309 17.4081 5.53613 17.2703 5.6757 17.0866C6.37353 16.3058 7.21093 15.7087 8.09485 15.2493C8.88573 14.836 9.72313 14.5604 10.607 14.3766C11.2584 14.2388 11.9562 14.1929 12.6075 14.2388C13.7706 14.2848 14.9336 14.5604 16.0036 15.0656C17.0271 15.5709 17.911 16.2139 18.7019 17.0407C18.8415 17.1785 18.981 17.3622 19.1206 17.5ZM20.8419 31.647C19.3997 31.647 17.9575 31.647 16.5154 31.647C15.1662 31.647 13.8171 31.647 12.4214 31.647C11.7236 31.647 11.0723 31.6011 10.3744 31.4633C9.72313 31.3255 9.11834 31.1417 8.51355 30.8661C7.72267 30.4987 7.02484 30.0394 6.37353 29.4882C5.72222 28.8911 5.16396 28.248 4.69874 27.4672C4.14047 26.5486 3.76829 25.584 3.5822 24.5276C3.44264 23.8845 3.39612 23.2415 3.44264 22.5525C3.48916 21.9094 3.5822 21.3123 3.72177 20.7152C5.11743 22.0932 6.83875 23.0577 8.74616 23.6549C9.72313 23.9304 10.7001 24.1142 11.7236 24.1601C12.2353 24.1601 12.7936 24.1601 13.3053 24.1142C13.6775 24.0682 14.0497 24.0223 14.4219 23.9764C15.4453 23.7927 16.4223 23.4711 17.3993 23.0577C18.6554 22.4606 19.8184 21.7257 20.7954 20.7612C20.8419 21.0367 20.935 21.2664 20.9815 21.542C21.028 21.9095 21.0745 22.3228 21.0745 22.6903C21.0745 22.9199 21.0745 23.1496 21.0745 23.3793C21.0745 26.0892 21.0745 28.7533 21.0745 31.4633C21.028 31.647 21.0745 31.647 20.8419 31.647Z" fill="white"/>
</svg>    