<svg width="144" height="54" viewBox="0 0 144 54" fill="none" xmlns="http://www.w3.org/2000/svg">
    <g opacity="0.34">
    <path d="M32.9 28.5L22.6593 39C22.1798 38.6511 21.8951 38.0706 21.9001 37.4522V19.5479C21.8951 18.9295 22.1798 18.349 22.6593 18L32.9 28.5Z" fill="#002F14"/>
    <path d="M37.9 24.2848L34.0119 28L22.9 17.3636C22.9419 17.3313 22.9855 17.3013 23.0306 17.2737C23.6179 16.9198 24.3514 16.9084 24.9496 17.2437L37.9 24.2848Z" fill="#002F14"/>
    <path d="M42.8999 28.5C42.9067 29.1663 42.5471 29.7817 41.9654 30.0995L38.5168 32L34.9 28.5L38.5168 25L41.9654 26.9006C42.5471 27.2184 42.9067 27.8338 42.8999 28.5Z" fill="#002F14"/>
    <path d="M37.9 32.7166L24.9496 39.7602C24.3501 40.0904 23.6194 40.079 23.0306 39.7302C22.9855 39.7026 22.9419 39.6726 22.9 39.6403L34.0119 29L37.9 32.7166Z" fill="#002F14"/>
    <path d="M56.9573 17.6485C56.7245 17.3979 56.4978 17.2308 56.277 17.1472C56.0622 17.0637 55.8443 17.0219 55.6236 17.0219C55.2953 17.0219 54.997 17.0816 54.7284 17.201C54.4659 17.3143 54.2391 17.4755 54.0482 17.6843C53.8572 17.8872 53.708 18.1259 53.6006 18.4004C53.4992 18.6749 53.4484 18.9703 53.4484 19.2866C53.4484 19.6267 53.4992 19.94 53.6006 20.2264C53.708 20.5129 53.8572 20.7605 54.0482 20.9694C54.2391 21.1782 54.4659 21.3423 54.7284 21.4617C54.997 21.581 55.2953 21.6407 55.6236 21.6407C55.8802 21.6407 56.1278 21.581 56.3665 21.4617C56.6112 21.3364 56.8379 21.1394 57.0468 20.8709L57.9777 21.5333C57.6913 21.9271 57.3422 22.2136 56.9304 22.3926C56.5187 22.5716 56.0801 22.6611 55.6146 22.6611C55.1253 22.6611 54.6747 22.5835 54.263 22.4284C53.8572 22.2673 53.5051 22.0435 53.2068 21.7571C52.9144 21.4647 52.6846 21.1156 52.5175 20.7098C52.3504 20.304 52.2669 19.8535 52.2669 19.3582C52.2669 18.8509 52.3504 18.3915 52.5175 17.9797C52.6846 17.562 52.9144 17.2069 53.2068 16.9145C53.5051 16.6221 53.8572 16.3983 54.263 16.2432C54.6747 16.0821 55.1253 16.0015 55.6146 16.0015C56.0443 16.0015 56.4411 16.0791 56.8051 16.2342C57.1751 16.3834 57.5182 16.64 57.8345 17.004L56.9573 17.6485ZM58.5414 20.3517C58.5414 20.0116 58.6011 19.7043 58.7204 19.4298C58.8457 19.1493 59.0128 18.9106 59.2217 18.7137C59.4305 18.5168 59.6782 18.3646 59.9646 18.2572C60.2511 18.1498 60.5554 18.0961 60.8776 18.0961C61.1999 18.0961 61.5042 18.1498 61.7906 18.2572C62.0771 18.3646 62.3247 18.5168 62.5336 18.7137C62.7424 18.9106 62.9065 19.1493 63.0259 19.4298C63.1512 19.7043 63.2139 20.0116 63.2139 20.3517C63.2139 20.6919 63.1512 21.0022 63.0259 21.2827C62.9065 21.5572 62.7424 21.7929 62.5336 21.9898C62.3247 22.1867 62.0771 22.3389 61.7906 22.4463C61.5042 22.5537 61.1999 22.6074 60.8776 22.6074C60.5554 22.6074 60.2511 22.5537 59.9646 22.4463C59.6782 22.3389 59.4305 22.1867 59.2217 21.9898C59.0128 21.7929 58.8457 21.5572 58.7204 21.2827C58.6011 21.0022 58.5414 20.6919 58.5414 20.3517ZM59.6155 20.3517C59.6155 20.5188 59.6424 20.6799 59.6961 20.8351C59.7558 20.9902 59.8393 21.1275 59.9467 21.2468C60.0601 21.3662 60.1944 21.4617 60.3495 21.5333C60.5047 21.6049 60.6807 21.6407 60.8776 21.6407C61.0746 21.6407 61.2506 21.6049 61.4057 21.5333C61.5609 21.4617 61.6922 21.3662 61.7996 21.2468C61.913 21.1275 61.9965 20.9902 62.0502 20.8351C62.1099 20.6799 62.1397 20.5188 62.1397 20.3517C62.1397 20.1847 62.1099 20.0235 62.0502 19.8684C61.9965 19.7132 61.913 19.576 61.7996 19.4566C61.6922 19.3373 61.5609 19.2418 61.4057 19.1702C61.2506 19.0986 61.0746 19.0628 60.8776 19.0628C60.6807 19.0628 60.5047 19.0986 60.3495 19.1702C60.1944 19.2418 60.0601 19.3373 59.9467 19.4566C59.8393 19.576 59.7558 19.7132 59.6961 19.8684C59.6424 20.0235 59.6155 20.1847 59.6155 20.3517ZM64.2948 18.2035H65.3152V18.8748H65.3331C65.4286 18.6719 65.5808 18.4929 65.7896 18.3377C66.0044 18.1766 66.2909 18.0961 66.6489 18.0961C67.3232 18.0961 67.7708 18.3616 67.9916 18.8927C68.1467 18.6182 68.3407 18.4183 68.5734 18.293C68.8061 18.1617 69.0836 18.0961 69.4058 18.0961C69.6923 18.0961 69.934 18.1438 70.1309 18.2393C70.3278 18.3348 70.4859 18.466 70.6053 18.6331C70.7306 18.8002 70.8201 18.9971 70.8738 19.2239C70.9275 19.4447 70.9544 19.6834 70.9544 19.94V22.5H69.8803V20.0653C69.8803 19.934 69.8683 19.8087 69.8445 19.6894C69.8206 19.564 69.7788 19.4566 69.7191 19.3671C69.6595 19.2716 69.5789 19.197 69.4775 19.1433C69.376 19.0896 69.2447 19.0628 69.0836 19.0628C68.9165 19.0628 68.7733 19.0956 68.654 19.1612C68.5406 19.2209 68.4451 19.3045 68.3675 19.4119C68.2959 19.5133 68.2422 19.6327 68.2064 19.7699C68.1766 19.9012 68.1616 20.0355 68.1616 20.1727V22.5H67.0875V19.94C67.0875 19.6715 67.0308 19.4596 66.9174 19.3045C66.8041 19.1433 66.6161 19.0628 66.3535 19.0628C66.1745 19.0628 66.0223 19.0926 65.897 19.1523C65.7777 19.212 65.6762 19.2925 65.5927 19.394C65.5151 19.4954 65.4584 19.6118 65.4226 19.7431C65.3868 19.8743 65.3689 20.0116 65.3689 20.1548V22.5H64.2948V18.2035ZM72.2659 18.2035H73.3401V22.5H72.2659V18.2035ZM72.1138 16.7445C72.1138 16.5714 72.1764 16.4222 72.3017 16.2969C72.433 16.1656 72.5971 16.1 72.794 16.1C72.991 16.1 73.1551 16.1626 73.2864 16.2879C73.4236 16.4073 73.4922 16.5595 73.4922 16.7445C73.4922 16.9294 73.4236 17.0846 73.2864 17.2099C73.1551 17.3293 72.991 17.3889 72.794 17.3889C72.5971 17.3889 72.433 17.3263 72.3017 17.201C72.1764 17.0697 72.1138 16.9175 72.1138 16.7445ZM74.6932 18.2035H75.7136V18.8927H75.7315C75.833 18.6779 75.9881 18.4929 76.197 18.3377C76.4059 18.1766 76.6893 18.0961 77.0473 18.0961C77.3338 18.0961 77.5755 18.1438 77.7724 18.2393C77.9753 18.3348 78.1394 18.4601 78.2647 18.6152C78.39 18.7704 78.4795 18.9494 78.5332 19.1523C78.5869 19.3552 78.6138 19.567 78.6138 19.7878V22.5H77.5397V20.3249C77.5397 20.2055 77.5337 20.0743 77.5218 19.931C77.5098 19.7819 77.477 19.6446 77.4233 19.5193C77.3756 19.388 77.298 19.2806 77.1906 19.197C77.0832 19.1075 76.937 19.0628 76.752 19.0628C76.5729 19.0628 76.4208 19.0926 76.2955 19.1523C76.1761 19.212 76.0747 19.2925 75.9911 19.394C75.9135 19.4954 75.8569 19.6118 75.8211 19.7431C75.7852 19.8743 75.7673 20.0116 75.7673 20.1548V22.5H74.6932V18.2035ZM84.3749 18.2035V22.1151C84.3749 22.503 84.3272 22.8521 84.2317 23.1624C84.1362 23.4787 83.9871 23.7442 83.7842 23.959C83.5872 24.1798 83.3366 24.3499 83.0323 24.4692C82.7279 24.5886 82.3669 24.6483 81.9492 24.6483C81.5494 24.6483 81.1704 24.5975 80.8124 24.4961C80.4544 24.3946 80.1232 24.2097 79.8188 23.9411L80.4633 23.0639C80.6781 23.2608 80.9019 23.413 81.1346 23.5204C81.3674 23.6278 81.6359 23.6815 81.9402 23.6815C82.1968 23.6815 82.4117 23.6457 82.5847 23.5741C82.7637 23.5025 82.904 23.4041 83.0054 23.2787C83.1128 23.1534 83.1874 23.0013 83.2292 22.8222C83.2769 22.6492 83.3008 22.4552 83.3008 22.2404V21.9271H83.2829C83.1277 22.136 82.9219 22.2941 82.6653 22.4015C82.4087 22.503 82.1461 22.5537 81.8776 22.5537C81.5553 22.5537 81.2629 22.497 81.0004 22.3836C80.7378 22.2643 80.511 22.1062 80.3201 21.9092C80.1351 21.7123 79.9919 21.4796 79.8904 21.211C79.789 20.9425 79.7383 20.6561 79.7383 20.3517C79.7383 20.0355 79.786 19.7401 79.8815 19.4656C79.977 19.1911 80.1172 18.9524 80.3022 18.7495C80.4872 18.5466 80.708 18.3885 80.9646 18.2751C81.2271 18.1557 81.5255 18.0961 81.8597 18.0961C82.164 18.0961 82.4475 18.1557 82.71 18.2751C82.9726 18.3944 83.1815 18.5854 83.3366 18.848H83.3545V18.2035H84.3749ZM82.0835 19.0628C81.8925 19.0628 81.7194 19.0956 81.5643 19.1612C81.4091 19.2209 81.2749 19.3074 81.1615 19.4208C81.0541 19.5282 80.9676 19.6625 80.9019 19.8236C80.8422 19.9788 80.8124 20.1518 80.8124 20.3428C80.8124 20.5158 80.8422 20.677 80.9019 20.8261C80.9676 20.9753 81.0571 21.1066 81.1704 21.22C81.2838 21.3334 81.4181 21.4229 81.5732 21.4885C81.7284 21.5542 81.8955 21.587 82.0745 21.587C82.2714 21.587 82.4475 21.5542 82.6026 21.4885C82.7637 21.4229 82.898 21.3364 83.0054 21.2289C83.1188 21.1156 83.2053 20.9813 83.265 20.8261C83.3247 20.671 83.3545 20.5039 83.3545 20.3249C83.3545 19.9489 83.2411 19.6446 83.0144 19.4119C82.7876 19.1791 82.4773 19.0628 82.0835 19.0628ZM90.7713 19.394C90.5625 19.1016 90.282 18.9554 89.9299 18.9554C89.7867 18.9554 89.6465 18.9912 89.5092 19.0628C89.372 19.1344 89.3033 19.2508 89.3033 19.4119C89.3033 19.5432 89.36 19.6386 89.4734 19.6983C89.5868 19.758 89.73 19.8087 89.9031 19.8505C90.0761 19.8922 90.2611 19.937 90.458 19.9847C90.6609 20.0265 90.8489 20.0951 91.022 20.1906C91.195 20.2801 91.3382 20.4054 91.4516 20.5666C91.565 20.7277 91.6217 20.9485 91.6217 21.2289C91.6217 21.4855 91.565 21.7034 91.4516 21.8824C91.3442 22.0554 91.201 22.1957 91.022 22.3031C90.8489 22.4105 90.652 22.4881 90.4312 22.5358C90.2104 22.5835 89.9896 22.6074 89.7688 22.6074C89.4346 22.6074 89.1273 22.5597 88.8468 22.4642C88.5664 22.3687 88.3157 22.1957 88.0949 21.945L88.811 21.2737C88.9483 21.4289 89.0945 21.5572 89.2496 21.6586C89.4108 21.7541 89.6047 21.8018 89.8315 21.8018C89.909 21.8018 89.9896 21.7929 90.0731 21.775C90.1567 21.7571 90.2343 21.7272 90.3059 21.6855C90.3775 21.6437 90.4342 21.593 90.4759 21.5333C90.5237 21.4676 90.5475 21.393 90.5475 21.3095C90.5475 21.1603 90.4909 21.0499 90.3775 20.9783C90.2641 20.9067 90.1209 20.85 89.9478 20.8082C89.7748 20.7605 89.5868 20.7187 89.3839 20.6829C89.187 20.6412 89.002 20.5785 88.8289 20.495C88.6559 20.4054 88.5127 20.2831 88.3993 20.128C88.2859 19.9728 88.2292 19.758 88.2292 19.4835C88.2292 19.2448 88.277 19.0389 88.3724 18.8659C88.4739 18.6868 88.6052 18.5406 88.7663 18.4273C88.9274 18.3139 89.1124 18.2303 89.3212 18.1766C89.5301 18.1229 89.7419 18.0961 89.9568 18.0961C90.2432 18.0961 90.5267 18.1468 90.8071 18.2482C91.0876 18.3437 91.3144 18.5108 91.4874 18.7495L90.7713 19.394ZM92.3623 20.3517C92.3623 20.0116 92.422 19.7043 92.5413 19.4298C92.6666 19.1493 92.8337 18.9106 93.0426 18.7137C93.2514 18.5168 93.4991 18.3646 93.7855 18.2572C94.072 18.1498 94.3763 18.0961 94.6985 18.0961C95.0208 18.0961 95.3251 18.1498 95.6116 18.2572C95.898 18.3646 96.1456 18.5168 96.3545 18.7137C96.5634 18.9106 96.7275 19.1493 96.8468 19.4298C96.9721 19.7043 97.0348 20.0116 97.0348 20.3517C97.0348 20.6919 96.9721 21.0022 96.8468 21.2827C96.7275 21.5572 96.5634 21.7929 96.3545 21.9898C96.1456 22.1867 95.898 22.3389 95.6116 22.4463C95.3251 22.5537 95.0208 22.6074 94.6985 22.6074C94.3763 22.6074 94.072 22.5537 93.7855 22.4463C93.4991 22.3389 93.2514 22.1867 93.0426 21.9898C92.8337 21.7929 92.6666 21.5572 92.5413 21.2827C92.422 21.0022 92.3623 20.6919 92.3623 20.3517ZM93.4364 20.3517C93.4364 20.5188 93.4633 20.6799 93.517 20.8351C93.5767 20.9902 93.6602 21.1275 93.7676 21.2468C93.881 21.3662 94.0153 21.4617 94.1704 21.5333C94.3256 21.6049 94.5016 21.6407 94.6985 21.6407C94.8955 21.6407 95.0715 21.6049 95.2267 21.5333C95.3818 21.4617 95.5131 21.3662 95.6205 21.2468C95.7339 21.1275 95.8174 20.9902 95.8711 20.8351C95.9308 20.6799 95.9606 20.5188 95.9606 20.3517C95.9606 20.1847 95.9308 20.0235 95.8711 19.8684C95.8174 19.7132 95.7339 19.576 95.6205 19.4566C95.5131 19.3373 95.3818 19.2418 95.2267 19.1702C95.0715 19.0986 94.8955 19.0628 94.6985 19.0628C94.5016 19.0628 94.3256 19.0986 94.1704 19.1702C94.0153 19.2418 93.881 19.3373 93.7676 19.4566C93.6602 19.576 93.5767 19.7132 93.517 19.8684C93.4633 20.0235 93.4364 20.1847 93.4364 20.3517ZM97.9456 20.3517C97.9456 20.0116 98.0053 19.7043 98.1246 19.4298C98.25 19.1493 98.417 18.9106 98.6259 18.7137C98.8348 18.5168 99.0824 18.3646 99.3688 18.2572C99.6553 18.1498 99.9596 18.0961 100.282 18.0961C100.604 18.0961 100.908 18.1498 101.195 18.2572C101.481 18.3646 101.729 18.5168 101.938 18.7137C102.147 18.9106 102.311 19.1493 102.43 19.4298C102.555 19.7043 102.618 20.0116 102.618 20.3517C102.618 20.6919 102.555 21.0022 102.43 21.2827C102.311 21.5572 102.147 21.7929 101.938 21.9898C101.729 22.1867 101.481 22.3389 101.195 22.4463C100.908 22.5537 100.604 22.6074 100.282 22.6074C99.9596 22.6074 99.6553 22.5537 99.3688 22.4463C99.0824 22.3389 98.8348 22.1867 98.6259 21.9898C98.417 21.7929 98.25 21.5572 98.1246 21.2827C98.0053 21.0022 97.9456 20.6919 97.9456 20.3517ZM99.0197 20.3517C99.0197 20.5188 99.0466 20.6799 99.1003 20.8351C99.16 20.9902 99.2435 21.1275 99.3509 21.2468C99.4643 21.3662 99.5986 21.4617 99.7537 21.5333C99.9089 21.6049 100.085 21.6407 100.282 21.6407C100.479 21.6407 100.655 21.6049 100.81 21.5333C100.965 21.4617 101.096 21.3662 101.204 21.2468C101.317 21.1275 101.401 20.9902 101.454 20.8351C101.514 20.6799 101.544 20.5188 101.544 20.3517C101.544 20.1847 101.514 20.0235 101.454 19.8684C101.401 19.7132 101.317 19.576 101.204 19.4566C101.096 19.3373 100.965 19.2418 100.81 19.1702C100.655 19.0986 100.479 19.0628 100.282 19.0628C100.085 19.0628 99.9089 19.0986 99.7537 19.1702C99.5986 19.2418 99.4643 19.3373 99.3509 19.4566C99.2435 19.576 99.16 19.7132 99.1003 19.8684C99.0466 20.0235 99.0197 20.1847 99.0197 20.3517ZM103.744 18.2035H104.764V18.8927H104.782C104.884 18.6779 105.039 18.4929 105.248 18.3377C105.456 18.1766 105.74 18.0961 106.098 18.0961C106.384 18.0961 106.626 18.1438 106.823 18.2393C107.026 18.3348 107.19 18.4601 107.315 18.6152C107.441 18.7704 107.53 18.9494 107.584 19.1523C107.637 19.3552 107.664 19.567 107.664 19.7878V22.5H106.59V20.3249C106.59 20.2055 106.584 20.0743 106.572 19.931C106.56 19.7819 106.528 19.6446 106.474 19.5193C106.426 19.388 106.349 19.2806 106.241 19.197C106.134 19.1075 105.987 19.0628 105.803 19.0628C105.623 19.0628 105.471 19.0926 105.346 19.1523C105.227 19.212 105.125 19.2925 105.042 19.394C104.964 19.4954 104.907 19.6118 104.872 19.7431C104.836 19.8743 104.818 20.0116 104.818 20.1548V22.5H103.744V18.2035ZM111.557 20.3517C111.557 20.0116 111.617 19.7043 111.736 19.4298C111.862 19.1493 112.029 18.9106 112.238 18.7137C112.447 18.5168 112.694 18.3646 112.981 18.2572C113.267 18.1498 113.571 18.0961 113.894 18.0961C114.216 18.0961 114.52 18.1498 114.807 18.2572C115.093 18.3646 115.341 18.5168 115.55 18.7137C115.758 18.9106 115.923 19.1493 116.042 19.4298C116.167 19.7043 116.23 20.0116 116.23 20.3517C116.23 20.6919 116.167 21.0022 116.042 21.2827C115.923 21.5572 115.758 21.7929 115.55 21.9898C115.341 22.1867 115.093 22.3389 114.807 22.4463C114.52 22.5537 114.216 22.6074 113.894 22.6074C113.571 22.6074 113.267 22.5537 112.981 22.4463C112.694 22.3389 112.447 22.1867 112.238 21.9898C112.029 21.7929 111.862 21.5572 111.736 21.2827C111.617 21.0022 111.557 20.6919 111.557 20.3517ZM112.632 20.3517C112.632 20.5188 112.658 20.6799 112.712 20.8351C112.772 20.9902 112.855 21.1275 112.963 21.2468C113.076 21.3662 113.21 21.4617 113.366 21.5333C113.521 21.6049 113.697 21.6407 113.894 21.6407C114.091 21.6407 114.267 21.6049 114.422 21.5333C114.577 21.4617 114.708 21.3662 114.816 21.2468C114.929 21.1275 115.013 20.9902 115.066 20.8351C115.126 20.6799 115.156 20.5188 115.156 20.3517C115.156 20.1847 115.126 20.0235 115.066 19.8684C115.013 19.7132 114.929 19.576 114.816 19.4566C114.708 19.3373 114.577 19.2418 114.422 19.1702C114.267 19.0986 114.091 19.0628 113.894 19.0628C113.697 19.0628 113.521 19.0986 113.366 19.1702C113.21 19.2418 113.076 19.3373 112.963 19.4566C112.855 19.576 112.772 19.7132 112.712 19.8684C112.658 20.0235 112.632 20.1847 112.632 20.3517ZM117.356 18.2035H118.376V18.8927H118.394C118.495 18.6779 118.65 18.4929 118.859 18.3377C119.068 18.1766 119.352 18.0961 119.71 18.0961C119.996 18.0961 120.238 18.1438 120.435 18.2393C120.638 18.3348 120.802 18.4601 120.927 18.6152C121.052 18.7704 121.142 18.9494 121.196 19.1523C121.249 19.3552 121.276 19.567 121.276 19.7878V22.5H120.202V20.3249C120.202 20.2055 120.196 20.0743 120.184 19.931C120.172 19.7819 120.139 19.6446 120.086 19.5193C120.038 19.388 119.96 19.2806 119.853 19.197C119.746 19.1075 119.599 19.0628 119.414 19.0628C119.235 19.0628 119.083 19.0926 118.958 19.1523C118.838 19.212 118.737 19.2925 118.653 19.394C118.576 19.4954 118.519 19.6118 118.483 19.7431C118.448 19.8743 118.43 20.0116 118.43 20.1548V22.5H117.356V18.2035Z" fill="#002F14"/>
    <path d="M52.3745 29.8439H56.1472C56.6731 29.8439 57.1704 29.8917 57.639 29.9873C58.1076 30.0829 58.5141 30.2503 58.8583 30.4894C59.2122 30.7189 59.4895 31.0345 59.6903 31.4361C59.9007 31.8282 60.0059 32.3255 60.0059 32.928C60.0059 33.5209 59.9103 34.0182 59.719 34.4199C59.5278 34.8215 59.2648 35.1419 58.9301 35.381C58.5953 35.62 58.1985 35.7922 57.7394 35.8974C57.2804 35.993 56.7831 36.0408 56.2476 36.0408H54.6123V40H52.3745V29.8439ZM54.6123 34.1473H56.1041C56.305 34.1473 56.4962 34.1282 56.6779 34.0899C56.8692 34.0517 57.0365 33.9895 57.18 33.9035C57.333 33.8078 57.4525 33.6835 57.5386 33.5305C57.6342 33.3679 57.6821 33.1671 57.6821 32.928C57.6821 32.6698 57.6199 32.4642 57.4956 32.3112C57.3808 32.1486 57.2278 32.0243 57.0365 31.9382C56.8548 31.8521 56.6492 31.7995 56.4197 31.7804C56.1902 31.7517 55.9702 31.7374 55.7598 31.7374H54.6123V34.1473ZM61.3755 29.1553H63.5272V40H61.3755V29.1553ZM69.6575 39.125H69.6288C69.3898 39.4979 69.0694 39.7657 68.6677 39.9283C68.2756 40.0909 67.8596 40.1721 67.4197 40.1721C67.0946 40.1721 66.779 40.1243 66.473 40.0287C66.1765 39.9426 65.9135 39.8087 65.684 39.627C65.4545 39.4453 65.2728 39.2206 65.1389 38.9528C65.005 38.6851 64.9381 38.3743 64.9381 38.0204C64.9381 37.6188 65.0098 37.2793 65.1532 37.0019C65.3063 36.7246 65.5071 36.4951 65.7557 36.3134C66.0139 36.1317 66.3056 35.993 66.6308 35.8974C66.9559 35.7922 67.2906 35.7157 67.6349 35.6679C67.9887 35.62 68.3378 35.5914 68.6821 35.5818C69.0359 35.5722 69.3611 35.5675 69.6575 35.5675C69.6575 35.1849 69.5189 34.8837 69.2415 34.6637C68.9738 34.4342 68.6534 34.3195 68.2804 34.3195C67.9266 34.3195 67.6014 34.396 67.305 34.549C67.0181 34.6924 66.7599 34.8932 66.5304 35.1515L65.3828 33.9752C65.7844 33.6022 66.253 33.3249 66.7886 33.1432C67.3241 32.9519 67.8788 32.8563 68.4526 32.8563C69.0837 32.8563 69.6001 32.9376 70.0018 33.1001C70.413 33.2532 70.7382 33.4827 70.9772 33.7887C71.2259 34.0947 71.398 34.4725 71.4937 34.9219C71.5893 35.3618 71.6371 35.8735 71.6371 36.4568V40H69.6575V39.125ZM69.1268 36.9446C68.9642 36.9446 68.7586 36.9541 68.5099 36.9732C68.2709 36.9828 68.0366 37.0211 67.807 37.088C67.5871 37.1549 67.3958 37.2554 67.2332 37.3892C67.0802 37.5231 67.0037 37.7096 67.0037 37.9487C67.0037 38.2069 67.1137 38.3982 67.3337 38.5225C67.5536 38.6468 67.7831 38.709 68.0222 38.709C68.2326 38.709 68.4334 38.6803 68.6247 38.6229C68.8255 38.5655 69.0024 38.4842 69.1555 38.379C69.3085 38.2738 69.428 38.14 69.5141 37.9774C69.6097 37.8148 69.6575 37.6235 69.6575 37.4036V36.9446H69.1268ZM77.2129 41.1332C77.0695 41.5062 76.9308 41.8361 76.7969 42.123C76.663 42.4099 76.4909 42.649 76.2805 42.8403C76.0797 43.0411 75.8215 43.1893 75.5059 43.285C75.1903 43.3902 74.7743 43.4428 74.2579 43.4428C73.7032 43.4428 73.1677 43.3567 72.6513 43.1845L72.9382 41.4201C73.2633 41.5636 73.598 41.6353 73.9423 41.6353C74.1814 41.6353 74.3774 41.6066 74.5304 41.5492C74.6835 41.5014 74.8078 41.4249 74.9034 41.3197C75.0086 41.2241 75.0947 41.1046 75.1616 40.9611C75.2286 40.8177 75.3003 40.6503 75.3768 40.459L75.5346 40.0574L72.4791 33.0284H74.803L76.5961 37.6331H76.6248L78.1597 33.0284H80.3688L77.2129 41.1332ZM91.1237 32.3255C90.942 32.096 90.6934 31.9286 90.3778 31.8235C90.0718 31.7087 89.7801 31.6513 89.5028 31.6513C89.3402 31.6513 89.1728 31.6704 89.0007 31.7087C88.8285 31.7469 88.666 31.8091 88.513 31.8952C88.3599 31.9717 88.2356 32.0769 88.14 32.2108C88.0444 32.3446 87.9965 32.5072 87.9965 32.6985C87.9965 33.0045 88.1113 33.2388 88.3408 33.4014C88.5703 33.564 88.8572 33.7026 89.2015 33.8174C89.5553 33.9321 89.9331 34.0469 90.3348 34.1617C90.7364 34.2764 91.1094 34.439 91.4536 34.6494C91.8075 34.8598 92.0992 35.1419 92.3287 35.4957C92.5582 35.8496 92.673 36.3229 92.673 36.9159C92.673 37.4801 92.5678 37.9726 92.3574 38.3934C92.147 38.8142 91.8601 39.1632 91.4967 39.4406C91.1428 39.7179 90.7268 39.9235 90.2487 40.0574C89.7801 40.1913 89.2828 40.2582 88.7568 40.2582C88.097 40.2582 87.4849 40.1578 86.9207 39.957C86.3565 39.7561 85.8305 39.431 85.3428 38.9815L86.935 37.2315C87.1645 37.5375 87.4514 37.7766 87.7957 37.9487C88.1496 38.1113 88.513 38.1926 88.8859 38.1926C89.0676 38.1926 89.2493 38.1734 89.431 38.1352C89.6223 38.0874 89.7896 38.0204 89.9331 37.9343C90.0861 37.8483 90.2056 37.7383 90.2917 37.6044C90.3873 37.4705 90.4352 37.3127 90.4352 37.131C90.4352 36.825 90.3156 36.5859 90.0765 36.4138C89.847 36.2321 89.5553 36.0791 89.2015 35.9548C88.8477 35.8304 88.4651 35.7061 88.0539 35.5818C87.6427 35.4575 87.2602 35.2901 86.9063 35.0797C86.5525 34.8693 86.256 34.592 86.017 34.2477C85.7874 33.9035 85.6727 33.4492 85.6727 32.885C85.6727 32.3399 85.7779 31.8617 85.9883 31.4505C86.2082 31.0393 86.4951 30.695 86.849 30.4177C87.2124 30.1403 87.6284 29.9347 88.097 29.8008C88.5656 29.6574 89.0485 29.5857 89.5458 29.5857C90.1196 29.5857 90.6742 29.6669 91.2098 29.8295C91.7453 29.9921 92.2283 30.2646 92.6586 30.6472L91.1237 32.3255ZM99.025 34.7498H97.1315V37.0737C97.1315 37.2649 97.141 37.4418 97.1601 37.6044C97.1793 37.7574 97.2223 37.8913 97.2892 38.0061C97.3562 38.1208 97.4566 38.2117 97.5905 38.2786C97.7339 38.336 97.9204 38.3647 98.1499 38.3647C98.2647 38.3647 98.4129 38.3551 98.5946 38.336C98.7859 38.3073 98.9293 38.2499 99.025 38.1639V39.957C98.7859 40.043 98.5372 40.1004 98.279 40.1291C98.0208 40.1578 97.7674 40.1721 97.5188 40.1721C97.1554 40.1721 96.8206 40.1339 96.5146 40.0574C96.2086 39.9809 95.9408 39.8613 95.7113 39.6988C95.4818 39.5266 95.3001 39.3067 95.1662 39.0389C95.0419 38.7711 94.9797 38.446 94.9797 38.0634V34.7498H93.6026V33.0284H94.9797V30.9628H97.1315V33.0284H99.025V34.7498ZM100.07 36.5142C100.07 35.9595 100.17 35.4575 100.371 35.008C100.572 34.5585 100.844 34.176 101.188 33.8604C101.542 33.5353 101.953 33.2866 102.422 33.1145C102.9 32.9423 103.407 32.8563 103.943 32.8563C104.478 32.8563 104.98 32.9423 105.449 33.1145C105.927 33.2866 106.338 33.5353 106.682 33.8604C107.036 34.176 107.314 34.5585 107.514 35.008C107.715 35.4575 107.816 35.9595 107.816 36.5142C107.816 37.0689 107.715 37.5709 107.514 38.0204C107.314 38.4699 107.036 38.8572 106.682 39.1823C106.338 39.4979 105.927 39.7418 105.449 39.9139C104.98 40.0861 104.478 40.1721 103.943 40.1721C103.407 40.1721 102.9 40.0861 102.422 39.9139C101.953 39.7418 101.542 39.4979 101.188 39.1823C100.844 38.8572 100.572 38.4699 100.371 38.0204C100.17 37.5709 100.07 37.0689 100.07 36.5142ZM102.221 36.5142C102.221 37.0402 102.369 37.4657 102.666 37.7909C102.972 38.116 103.398 38.2786 103.943 38.2786C104.488 38.2786 104.908 38.116 105.205 37.7909C105.511 37.4657 105.664 37.0402 105.664 36.5142C105.664 35.9882 105.511 35.5627 105.205 35.2375C104.908 34.9124 104.488 34.7498 103.943 34.7498C103.398 34.7498 102.972 34.9124 102.666 35.2375C102.369 35.5627 102.221 35.9882 102.221 36.5142ZM109.292 33.0284H111.444V34.1473H111.473C111.702 33.717 111.975 33.3966 112.29 33.1862C112.606 32.9663 113.003 32.8563 113.481 32.8563C113.605 32.8563 113.73 32.8611 113.854 32.8706C113.978 32.8802 114.093 32.8993 114.198 32.928V34.8932C114.045 34.8454 113.892 34.812 113.739 34.7928C113.596 34.7641 113.443 34.7498 113.28 34.7498C112.869 34.7498 112.544 34.8072 112.305 34.9219C112.066 35.0367 111.879 35.1993 111.745 35.4097C111.621 35.6105 111.54 35.8543 111.501 36.1412C111.463 36.4281 111.444 36.7437 111.444 37.088V40H109.292V33.0284ZM121.69 38.795C121.345 39.2349 120.91 39.5744 120.384 39.8135C119.858 40.0526 119.313 40.1721 118.749 40.1721C118.214 40.1721 117.707 40.0861 117.228 39.9139C116.76 39.7418 116.349 39.4979 115.995 39.1823C115.651 38.8572 115.378 38.4699 115.177 38.0204C114.976 37.5709 114.876 37.0689 114.876 36.5142C114.876 35.9595 114.976 35.4575 115.177 35.008C115.378 34.5585 115.651 34.176 115.995 33.8604C116.349 33.5353 116.76 33.2866 117.228 33.1145C117.707 32.9423 118.214 32.8563 118.749 32.8563C119.246 32.8563 119.696 32.9423 120.097 33.1145C120.509 33.2866 120.853 33.5353 121.13 33.8604C121.417 34.176 121.637 34.5585 121.79 35.008C121.943 35.4575 122.02 35.9595 122.02 36.5142V37.1884H117.028C117.114 37.5996 117.3 37.9296 117.587 38.1782C117.874 38.4173 118.228 38.5368 118.649 38.5368C119.002 38.5368 119.299 38.4603 119.538 38.3073C119.787 38.1447 120.002 37.9391 120.184 37.6905L121.69 38.795ZM119.868 35.7252C119.878 35.3618 119.758 35.051 119.509 34.7928C119.261 34.5346 118.94 34.4055 118.548 34.4055C118.309 34.4055 118.099 34.4438 117.917 34.5203C117.735 34.5968 117.578 34.6972 117.444 34.8215C117.319 34.9363 117.219 35.0749 117.142 35.2375C117.075 35.3905 117.037 35.5531 117.028 35.7252H119.868Z" fill="#002F14"/>
    </g>
</svg>
