<svg width="61" height="53" viewBox="0 0 61 53" fill="none" xmlns="http://www.w3.org/2000/svg">
    <path d="M23.2929 4.75384C24.8835 2.45518 28.2811 2.45518 29.8716 4.75384L35.1501 12.3825C35.6722 13.137 36.4377 13.689 37.3184 13.9462L46.2174 16.5444C48.927 17.3356 49.9869 20.6088 48.2552 22.838L42.6304 30.0788C42.0619 30.8107 41.7651 31.7173 41.7908 32.6437L42.0454 41.8127C42.1233 44.6175 39.3646 46.6287 36.7181 45.6966L27.9111 42.5946C27.0511 42.2917 26.1134 42.2917 25.2534 42.5946L16.4464 45.6966C13.8 46.6287 11.0413 44.6174 11.1191 41.8127L11.3737 32.6437C11.3995 31.7173 11.1027 30.8107 10.5342 30.0788L4.90938 22.838C3.17768 20.6088 4.23751 17.3356 6.94716 16.5444L15.8462 13.9462C16.7268 13.689 17.4924 13.137 18.0144 12.3825L23.2929 4.75384Z" stroke="white" stroke-width="3" stroke-linejoin="round"/>
    <g filter="url(#filter0_b)">
    <path d="M30.8879 4.75384C32.4784 2.45518 35.876 2.45518 37.4666 4.75384L42.7451 12.3825C43.2671 13.137 44.0327 13.689 44.9133 13.9462L53.8123 16.5444C56.522 17.3356 57.5818 20.6088 55.8501 22.838L50.2253 30.0788C49.6568 30.8107 49.36 31.7173 49.3858 32.6437L49.6404 41.8127C49.7182 44.6175 46.9595 46.6287 44.3131 45.6966L35.5061 42.5946C34.6461 42.2917 33.7084 42.2917 32.8484 42.5946L24.0414 45.6966C21.3949 46.6287 18.6362 44.6175 18.7141 41.8127L18.9687 32.6437C18.9944 31.7173 18.6976 30.8107 18.1291 30.0788L12.5043 22.838C10.7726 20.6088 11.8324 17.3356 14.5421 16.5444L23.4411 13.9462C24.3218 13.689 25.0873 13.137 25.6094 12.3825L30.8879 4.75384Z" fill="white" fill-opacity="0.5"/>
    </g>
    <defs>
    <filter id="filter0_b" x="6.66084" y="-1.97021" width="55.0328" height="52.8975" filterUnits="userSpaceOnUse" color-interpolation-filters="sRGB">
    <feFlood flood-opacity="0" result="BackgroundImageFix"/>
    <feGaussianBlur in="BackgroundImage" stdDeviation="2.5"/>
    <feComposite in2="SourceAlpha" operator="in" result="effect1_backgroundBlur"/>
    <feBlend mode="normal" in="SourceGraphic" in2="effect1_backgroundBlur" result="shape"/>
    </filter>
    </defs>
</svg>    